<svg width="167" height="124" viewBox="0 0 167 124" fill="none" xmlns="http://www.w3.org/2000/svg">
<g clip-path="url(#clip0_19_4)">
<path d="M158.5 71C158.5 109.911 125.171 141.5 84 141.5C42.8286 141.5 9.5 109.911 9.5 71C9.5 32.0894 42.8286 0.5 84 0.5C125.171 0.5 158.5 32.0894 158.5 71Z" stroke="url(#paint0_linear_19_4)"/>
<path d="M89.6328 82.2215C89.3816 87.6668 88.7926 93.092 87.8693 98.4667C87.7704 99.073 88.7131 99.3356 88.8153 98.7228C89.7558 93.2635 90.3568 87.7528 90.6151 82.2215C90.6381 81.6023 89.6558 81.6023 89.6262 82.2215H89.6328Z" fill="Black"/>
<path d="M90.77 77.592C92.1921 75.8406 93.7852 74.2303 95.5265 72.7843C95.8331 72.5281 96.4001 71.896 96.822 71.8344C97.8109 71.6885 98.1009 72.7616 98.0185 73.598C97.8306 75.4751 96.9637 77.0344 96.1792 78.7137C95.2306 80.7286 94.1448 82.6782 92.9291 84.5492C92.2204 85.6417 90.9678 87.013 90.7008 88.313C90.6282 88.6761 91.0502 89.1365 91.4227 88.8577C94.2476 86.7602 97.1912 84.7729 100.412 83.301C103.279 81.9881 108.9 80.1077 110.086 84.3157C111.23 88.3714 109.318 92.4205 107.528 96.0223C105.097 100.964 102.136 105.638 98.6976 109.963C94.7222 114.962 90.3184 119.724 84.0884 121.925C82.6249 122.441 80.7921 123.06 79.2297 123.021C76.5003 122.95 75.9861 119.863 76.1377 117.707C76.4146 113.743 77.8947 109.314 79.8461 105.855C80.1526 105.31 79.3055 104.824 78.9989 105.366C77.1 108.83 75.8443 112.6 75.2906 116.498C74.9346 118.972 75.106 123.371 78.3594 123.935C79.7175 124.169 81.2997 123.734 82.6084 123.394C84.4097 122.915 86.1452 122.222 87.777 121.332C90.9238 119.585 93.7405 117.317 96.1034 114.628C100.803 109.424 104.781 103.631 107.934 97.4001C110.001 93.2991 112.344 88.7312 111.032 84.0694C110.08 80.6881 106.747 80.4579 103.665 81.1127C99.0008 82.108 94.6563 85.2656 90.9282 88.0342L91.6468 88.5789C91.8116 87.7846 92.5796 86.9093 93.0049 86.2382C93.5883 85.3305 94.1948 84.4357 94.7519 83.5085C95.6815 81.9621 96.4825 80.3444 97.2505 78.717C97.9592 77.2192 98.691 75.8479 98.9316 74.1783C99.0733 73.2057 99.337 71.6561 98.3811 70.9623C97.6625 70.4371 96.878 70.6673 96.1957 71.0758C93.8718 72.4633 91.7391 74.8558 90.0745 76.9112C89.6855 77.391 90.3744 78.0783 90.77 77.592Z" fill="black"/>
<path d="M111.125 86.6077C111.322 83.9234 111.454 81.2358 111.784 78.5613L110.867 78.8044C111.827 80.7171 111.045 83.9104 113.422 84.9446C113.534 85.0016 113.664 85.0155 113.785 84.9838C113.907 84.952 114.013 84.8768 114.081 84.7728C116.085 81.9944 115.875 78.8757 116.718 75.7376L115.822 75.8543C116.969 77.7313 117.032 80.0007 118.212 81.8713C118.256 81.9423 118.319 82.001 118.393 82.0417C118.467 82.0823 118.55 82.1037 118.635 82.1037C118.72 82.1037 118.804 82.0823 118.878 82.0417C118.952 82.001 119.014 81.9423 119.059 81.8713C119.332 81.4867 119.52 81.0497 119.61 80.5887C119.7 80.1278 119.689 79.6534 119.58 79.1967C119.225 77.3116 118.997 75.4055 118.897 73.4909C118.676 69.9248 118.61 66.3166 118.703 62.7375C118.887 55.6539 119.741 48.6092 120.631 41.5872C120.71 40.9713 119.728 40.9778 119.642 41.5872C118.805 48.1975 117.994 54.824 117.753 61.4893C117.631 64.848 117.671 68.2131 117.809 71.5717C117.882 73.2791 117.998 74.9844 118.159 76.6874C118.301 78.1658 119.075 80.0882 118.205 81.385H119.052C117.875 79.5176 117.813 77.2483 116.662 75.368C116.613 75.2875 116.54 75.2229 116.454 75.1821C116.368 75.1413 116.271 75.1259 116.177 75.1379C116.082 75.1499 115.992 75.1888 115.919 75.2498C115.846 75.3107 115.793 75.3912 115.766 75.4814C114.942 78.5256 115.166 81.5925 113.221 84.2865L113.88 84.1114C111.959 83.275 112.499 79.9553 111.678 78.3181C111.441 77.8416 110.818 78.1398 110.765 78.5613C110.436 81.2358 110.317 83.9234 110.106 86.6077C110.06 87.2269 111.039 87.2237 111.095 86.6077H111.125Z" fill="black"/>
<path d="M121.231 78.7137C121.231 78.3895 120.901 76.6518 121.125 76.4832C121.287 76.3665 122.164 76.5837 122.408 76.5675C122.958 76.4895 123.498 76.3558 124.02 76.1687C126.687 75.3602 129.176 74.0634 131.354 72.3465C133.798 70.527 136.016 68.4313 137.963 66.1026C138.672 65.2123 139.165 64.1744 139.403 63.0682C139.634 62.0956 140.026 61.029 139.608 60.0467C139.265 59.2647 138.737 58.5746 138.068 58.0335C137.258 57.4532 136.19 57.6088 135.253 57.4856C132.754 57.117 130.201 57.5537 127.975 58.7305C125.041 60.2218 121.92 61.5315 119.204 63.3794C116.55 65.1819 113.867 66.9261 111.362 68.9231C108.59 71.1373 105.666 73.2381 103.329 75.9159C101.595 77.9064 99.66 79.8062 99.6436 82.578C99.6472 82.6828 99.6842 82.7839 99.7492 82.867C99.8142 82.9502 99.9041 83.0112 100.006 83.0416C101.136 83.524 102.355 83.7748 103.587 83.7787C104.819 83.7826 106.039 83.5395 107.172 83.0643C108.669 82.4159 109.984 81.4433 111.434 80.7269C112.753 80.0785 114.057 79.4085 115.347 78.7169C121.132 75.6533 126.676 72.1877 132.313 68.8712C143.778 62.1248 155.325 55.5113 166.766 48.7259C166.871 48.658 166.945 48.553 166.974 48.4327C167.003 48.3123 166.984 48.1857 166.92 48.0789C166.857 47.9721 166.754 47.8933 166.634 47.8587C166.513 47.8241 166.383 47.8363 166.271 47.8928C155.394 54.3474 144.401 60.6497 133.48 67.059C128.189 70.1647 122.991 73.4293 117.612 76.3924C114.872 77.8999 111.945 79.1546 109.249 80.7301C107.907 81.5147 106.816 82.3511 105.241 82.6753C103.523 83.0416 101.872 82.7466 100.267 82.1112L100.626 82.578C100.626 80.0979 102.778 77.9648 104.38 76.1979C106.147 74.2528 108.224 72.6642 110.277 71.0271C114.869 67.3637 119.616 64.0245 124.88 61.3791C127.355 60.1342 129.871 58.4614 132.715 58.2831C133.889 58.2085 135 58.51 136.143 58.5846C136.971 58.6365 137.432 58.6721 137.97 59.3821C138.418 60.0488 138.661 60.8292 138.668 61.6288C138.553 64.4395 136.605 66.1091 134.736 67.9635C132.679 69.9994 130.629 71.8894 128.107 73.3742C126.749 74.1838 125.287 74.8107 123.759 75.2383C122.991 75.4371 122.195 75.5127 121.402 75.462C121.053 75.462 120.918 75.3096 120.565 75.5431C119.715 76.1104 120.212 77.8837 120.252 78.7137C120.278 79.3329 121.261 79.3361 121.241 78.7137H121.231Z" fill="black"/>
<path d="M115.341 70.1874C115.472 70.1874 115.597 70.1362 115.69 70.045C115.783 69.9538 115.835 69.8301 115.835 69.7011C115.835 69.5722 115.783 69.4485 115.69 69.3573C115.597 69.2661 115.472 69.2148 115.341 69.2148C115.209 69.2148 115.084 69.2661 114.991 69.3573C114.898 69.4485 114.846 69.5722 114.846 69.7011C114.846 69.8301 114.898 69.9538 114.991 70.045C115.084 70.1362 115.209 70.1874 115.341 70.1874Z" fill="black"/>
<path d="M25.0683 55.7155C25.1705 63.0811 25.3979 70.4338 24.7749 77.7832C24.0939 85.2493 23.0067 92.6742 21.5182 100.026C21.3995 100.632 22.3456 100.892 22.4642 100.282C23.928 93.0508 25.0117 85.75 25.7111 78.4089C26.3703 70.852 26.166 63.2919 26.0605 55.7155C26.0605 55.0963 25.0716 55.0931 25.0716 55.7155H25.0683Z" fill="black"/>
<path d="M37.7953 70.0902C44.8559 61.4569 51.9199 52.8302 57.7049 43.2925C60.5636 38.6346 63.1605 33.8261 65.4841 28.8887C66.4895 26.7198 67.4059 24.6126 67.8377 22.246C68.2365 20.0512 68.7639 17.9083 68.108 15.707C67.5904 13.9726 66.4433 12.4165 64.6765 11.7584C63.1075 11.1748 61.2912 11.4342 59.6695 11.6449C56.2832 12.1293 52.9906 13.1129 49.9025 14.5626C42.8518 17.7462 36.7042 22.6934 31.2422 28.036C22.606 36.4845 15.1168 46.3107 9.88227 57.142C7.46609 62.1377 5.0565 67.1368 3.15454 72.353C1.21962 77.6633 -0.659266 83.6965 0.22414 89.3958C0.985584 94.2975 5.10265 98.4893 10.4426 97.7145C17.1572 96.7419 21.4588 90.0798 24.7683 84.9057C25.4605 83.8262 26.1363 82.7336 26.8812 81.6865C27.2438 81.1775 26.3934 80.6945 26.0341 81.2002C22.573 86.0631 19.8569 91.8304 14.5828 95.1177C11.7842 96.8651 8.5275 97.4746 5.53117 95.8569C4.52519 95.2995 3.64627 94.5449 2.94886 93.6398C2.25145 92.7348 1.7504 91.6985 1.47673 90.5953C0.0560295 85.4082 1.74703 79.5533 3.39517 74.6224C5.13232 69.4353 7.42324 64.446 9.80976 59.5215C11.5304 55.9716 13.2379 52.4833 15.3673 49.1474C18.8286 43.7498 22.7288 38.6368 27.0296 33.8585C31.8751 28.4445 37.2481 23.3709 43.3561 19.3283C48.9005 15.6552 55.4898 12.4975 62.3098 12.3906C69.6111 12.2803 67.3597 22.0612 65.6555 26.2173C63.5162 31.4336 60.6715 36.3548 57.8103 41.2112C51.877 51.2903 44.5098 60.3385 37.103 69.4158C36.7108 69.8956 37.3997 70.5829 37.7953 70.0966V70.0902Z" fill="black"/>
<path d="M26.6274 93.5584C27.3131 91.3636 27.8471 89.1234 28.7041 86.9838H27.7581C28.4338 89.0878 28.124 92.6279 30.2105 94.0382C32.2311 95.4063 33.8661 92.119 34.4726 90.7444C35.6276 88.0633 36.4039 85.2393 36.78 82.3511C36.9811 80.9052 37.314 78.3635 35.6329 77.5628C34.0771 76.8236 31.9312 78.7201 31.0478 79.8127C29.7785 81.4438 29.0048 83.395 28.8162 85.4406C28.569 87.804 28.5195 90.605 29.4985 92.8225C30.2435 94.518 31.707 94.8681 32.9464 93.3541C35.0495 90.7865 35.9131 86.7277 36.5493 83.5765C37.3239 79.67 37.0075 75.6468 37.6931 71.7241L36.7965 71.8408C37.97 73.8832 36.2889 76.2239 37.2184 78.2987C37.9964 80.0396 39.8555 78.1949 40.4686 77.2937C40.7191 76.9209 40.373 77.3261 40.3137 77.1219C40.3677 77.2809 40.3977 77.447 40.4027 77.6146C40.4027 77.9875 40.4389 78.3765 40.4389 78.7493C40.4389 79.8451 40.3697 80.9408 40.3268 82.0366C40.2675 83.5636 39.9082 85.7356 40.7092 87.1459C40.7485 87.2081 40.8013 87.261 40.864 87.3007C40.9266 87.3403 40.9975 87.3657 41.0713 87.375C41.1452 87.3843 41.2203 87.3773 41.2911 87.3545C41.3619 87.3317 41.4266 87.2936 41.4805 87.2431C42.5485 86.3159 42.9935 84.7404 43.3726 83.4436C43.9132 81.5925 44.2692 79.6927 44.6219 77.7994C45.6108 72.4535 45.98 67.1757 46.2701 61.7519C46.6326 55.2098 47.6875 48.7032 48.5016 42.2032C49.3158 35.7032 50.1036 29.2647 50.8321 22.7906C51.676 15.3569 52.4473 7.91348 53.1 0.463556C53.1527 -0.15565 52.1704 -0.152408 52.1111 0.463556C51.0101 13.0227 49.5729 25.5527 48.0237 38.0698C47.2359 44.4174 46.303 50.7619 45.6306 57.1225C44.9713 63.334 45.2251 69.6201 43.9824 75.7732C43.6264 77.5498 43.3232 79.3393 42.9243 81.1062C42.5321 82.8212 42.1629 85.3434 40.7488 86.5623L41.5201 86.6596C40.6664 85.1586 41.2564 82.4127 41.3256 80.7755C41.3652 79.8029 41.8629 77.2094 40.996 76.4313C39.7599 75.3453 38.626 78.9309 38.0293 77.686C37.6634 76.9111 38.0293 75.4523 38.1282 74.6386C38.27 73.4196 38.2568 72.4665 37.6173 71.3577C37.5676 71.2773 37.4953 71.2127 37.4091 71.1719C37.3228 71.131 37.2264 71.1157 37.1315 71.1277C37.0365 71.1397 36.9472 71.1786 36.8743 71.2395C36.8014 71.3005 36.748 71.381 36.7207 71.4712C36.2361 74.243 36.1966 77.0408 36.0087 79.8418C35.7632 82.8205 35.1295 85.7558 34.1232 88.5755C33.8779 89.4049 33.5683 90.2145 33.197 90.9973C32.9464 91.4738 32.4685 92.5404 32.0268 92.8516C30.5072 93.9182 30.1017 91.9407 29.8875 90.7865C29.4656 88.5382 29.5183 86.2286 30.0424 84.0012C30.5896 81.9393 31.773 79.7511 33.7969 78.7785C36.813 77.3326 35.8208 82.1857 35.5736 83.6414C35.1022 86.4035 34.3078 89.5254 32.7915 91.918C32.1553 92.9197 31.473 93.9636 30.2369 92.6474C29.7622 92.1352 29.6238 91.2047 29.4787 90.5434C29.2052 89.279 29.103 87.9952 28.7041 86.7568C28.6733 86.6571 28.6106 86.5698 28.5254 86.5077C28.4403 86.4456 28.3371 86.4121 28.2311 86.4121C28.1251 86.4121 28.0219 86.4456 27.9367 86.5077C27.8516 86.5698 27.7889 86.6571 27.7581 86.7568C26.901 88.8965 26.367 91.1367 25.6814 93.3314C25.4935 93.9247 26.4396 94.1808 26.6274 93.5875V93.5584Z" fill="black"/>
<path d="M44.2626 74.149C44.3166 75.8891 44.5017 77.6229 44.8164 79.3361C44.9779 80.2017 45.0339 82.1209 45.8514 82.7466C47.8292 84.2573 49.2004 79.281 49.5564 78.37C49.9454 77.3747 52.7143 68.145 53.6141 68.4141C54.2569 68.6054 54.3822 70.8001 54.514 71.3869C54.8173 72.7129 55.1173 74.1134 55.9512 75.2253C56.0087 75.3142 56.0929 75.3833 56.1922 75.4228C56.2915 75.4623 56.4008 75.4703 56.505 75.4458C59.7584 74.5608 59.5079 70.0707 60.9385 67.7203L60.2792 67.8954C61.2681 68.44 61.5055 70.9201 61.9076 71.938C62.3098 72.956 62.8207 73.8281 63.9678 74.0745C64.0719 74.1 64.1817 74.0925 64.2812 74.0528C64.3807 74.0132 64.4648 73.9436 64.5216 73.854C65.3358 72.3692 65.6159 70.771 65.6918 69.0981C65.7972 66.738 65.817 64.3682 65.8137 62.0048C65.8137 57.1614 65.7445 52.318 65.6852 47.4778C65.5665 37.9466 65.3555 28.4186 64.8743 18.9003C64.8413 18.2811 63.859 18.2779 63.8854 18.9003C64.3502 27.9777 64.5447 37.0907 64.6798 46.1908C64.7413 50.7078 64.7875 55.2227 64.8182 59.7355C64.8182 62.0048 64.8347 64.2742 64.7721 66.524C64.7095 68.8615 64.8281 71.2475 63.6678 73.3645L64.2216 73.144C61.7098 72.6026 62.8405 68.1904 60.7671 67.0622C60.6555 67.0037 60.5254 66.9889 60.4032 67.0208C60.2809 67.0526 60.1754 67.1288 60.1078 67.234C58.875 69.257 58.9475 73.7859 56.2611 74.5154L56.8148 74.7358C55.3678 72.8166 55.7864 70.3041 54.7481 68.252C54.5074 67.7819 54.1218 67.2438 53.5219 67.2502C52.5824 67.2502 51.9759 69.043 51.6496 69.7433C50.331 72.6059 49.5894 75.7246 48.4126 78.6521C48.2082 79.1578 47.5622 81.4466 47.0941 81.6249C46.1052 81.9945 46.0788 80.4708 45.9635 79.9164C45.569 78.0176 45.3396 76.0893 45.2778 74.1523C45.2581 73.5331 44.2889 73.5298 44.2889 74.1523L44.2626 74.149Z" fill="black"/>
<path d="M81.2667 11.444C79.1011 18.6637 76.8958 25.8705 74.5786 33.0448C73.4875 36.4229 72.3865 39.7977 71.1405 43.1272C69.8451 46.5928 68.5859 50.3729 66.6609 53.5532L67.5575 53.9228C68.899 48.1911 72.0701 42.7868 75.1389 37.791C76.2135 36.0339 77.5254 34.4486 78.6231 32.7142C78.9923 32.1339 80.5811 28.9471 81.3228 28.973L80.8514 28.6196C81.7908 32.8049 81.7843 37.1977 82.0183 41.4608C82.1304 43.4546 82.2358 45.4614 82.516 47.4422C82.6578 48.4634 82.7731 49.799 83.4192 50.6646C84.8828 52.6098 87.2231 48.4537 87.7439 47.507C89.7019 43.9409 91.0864 40.0506 92.395 36.1992C93.1224 34.0617 93.8047 31.9123 94.442 29.751C94.9793 27.9356 95.4704 26.1071 95.8693 24.2592C96.2517 22.5345 96.2517 20.7158 96.7164 19.0236L95.7539 18.8971C95.5693 26.266 94.8903 33.5571 94.1552 40.887C93.1004 51.4427 91.5643 61.9433 89.0262 72.259C87.8461 77.2143 86.3353 82.0877 84.5037 86.8477C83.0599 90.5143 81.5041 93.8826 78.3924 96.4988C77.0343 97.6432 75.1126 98.9821 73.2469 98.5445C71.9235 98.2125 70.726 97.5111 69.7989 96.5248C67.9794 94.6315 67.1322 91.9861 66.6444 89.4963C65.8401 85.3856 65.8665 80.9538 66.3708 76.801C67.107 71.0281 68.7239 65.3974 71.1669 60.0986C72.1558 57.959 73.6984 54.6554 76.1674 53.8028C77.9342 53.1933 80.2251 54.2599 81.4184 55.5275C82.4072 56.5682 83.0072 57.8876 83.6532 59.139C85.1531 62.0567 87.1012 64.2029 90.5194 64.767C92.395 65.0912 94.3662 64.4233 96.1429 63.869C101.809 62.1054 107.235 59.4081 112.232 56.2667C118.109 52.5709 123.624 48.0257 127.622 42.3589C128.616 40.9457 129.497 39.4598 130.26 37.9142C130.533 37.3566 129.689 36.8671 129.412 37.4279C126.011 44.3137 120.183 49.7472 113.844 54.0557C108.422 57.7385 102.419 60.8637 96.1363 62.8575C93.786 63.6064 91.5215 64.3034 89.1119 63.4151C85.4069 62.0567 84.8267 58.3642 82.7138 55.5729C81.214 53.5953 78.0067 51.8252 75.5081 53.0377C73.2337 54.1432 71.7866 56.6427 70.712 58.7889C68.0189 64.1672 66.3115 70.4014 65.4379 76.3341C64.8472 80.4774 64.8749 84.6833 65.5203 88.8187C65.9258 91.3701 66.6609 94.0058 68.2035 96.1357C69.4528 97.8604 71.7372 99.7018 74.0314 99.6759C77.3672 99.6532 80.5481 96.0741 82.2721 93.6524C84.6916 90.2581 85.9771 85.9334 87.2759 82.0367C90.6612 71.8862 92.6093 61.2138 94.0069 50.6355C95.0815 42.5307 95.9847 34.3254 96.4396 26.1558C96.5747 23.7341 96.6604 21.3123 96.723 18.8874C96.7191 18.7727 96.6741 18.663 96.5959 18.5778C96.5177 18.4926 96.4114 18.4374 96.2958 18.4219C96.1801 18.4063 96.0626 18.4315 95.9641 18.493C95.8655 18.5545 95.7923 18.6482 95.7572 18.7577C95.4012 20.0059 95.4012 21.2572 95.2002 22.5281C94.9661 23.9966 94.587 25.4458 94.2113 26.8949C93.6377 29.067 92.9785 31.2132 92.2895 33.3528C91.1716 36.941 89.8679 40.4707 88.3834 43.9279C87.7392 45.4577 86.9674 46.9323 86.076 48.3369C85.7645 48.8617 85.3782 49.3399 84.9289 49.7569C84.7708 49.9306 84.5731 50.065 84.3521 50.1492C84.1345 50.1946 84.3982 50.3372 84.1609 50.0454C83.4555 49.1863 83.4423 47.3514 83.3302 46.3302C83.1324 44.505 83.0368 42.6668 82.938 40.8189C82.7138 36.6725 82.6808 32.4127 81.7678 28.3408C81.7375 28.2397 81.675 28.1509 81.5896 28.0873C81.5042 28.0237 81.4002 27.9887 81.2931 27.9874C80.2053 27.9453 79.2164 29.9131 78.7517 30.6231C77.6046 32.3705 76.3553 34.0369 75.2081 35.7843C71.6613 41.1788 68.0618 47.332 66.585 53.644C66.5594 53.7553 66.5743 53.8719 66.6273 53.9734C66.6803 54.075 66.7678 54.155 66.8747 54.1994C66.9816 54.2438 67.1009 54.2499 67.2119 54.2165C67.3229 54.1831 67.4183 54.1124 67.4816 54.0168C69.255 51.0991 70.4054 47.6659 71.6317 44.4888C72.9799 40.994 74.15 37.4376 75.3037 33.878C77.6936 26.5059 79.9581 19.0981 82.1864 11.6774C82.3644 11.0809 81.4184 10.8247 81.2404 11.4213L81.2667 11.444Z" fill="black"/>
<path d="M61.2286 54.4447C61.3597 54.4447 61.4855 54.3935 61.5782 54.3023C61.6709 54.2111 61.723 54.0874 61.723 53.9585C61.723 53.8295 61.6709 53.7058 61.5782 53.6146C61.4855 53.5234 61.3597 53.4722 61.2286 53.4722C61.0974 53.4722 60.9717 53.5234 60.879 53.6146C60.7862 53.7058 60.7341 53.8295 60.7341 53.9585C60.7341 54.0874 60.7862 54.2111 60.879 54.3023C60.9717 54.3935 61.0974 54.4447 61.2286 54.4447Z" fill="black"/>
</g>
<defs>
<linearGradient id="paint0_linear_19_4" x1="208.5" y1="-53" x2="27" y2="122" gradientUnits="userSpaceOnUse">
<stop stop-color="black"/>
<stop offset="0.890777" stop-color="black" stop-opacity="0"/>
</linearGradient>
<clipPath id="clip0_19_4">
<rect width="167" height="124" fill="black"/>
</clipPath>
</defs>
</svg>
